HIERARCHY
ROOT Bip001_Pelvis
{
  OFFSET 0.641812 93.1052 -5.31185
  CHANNELS 6 Xposition Yposition Zposition Zrotation Xrotation Yrotation
  JOINT Bip001_Spine
  {
    OFFSET 1.44608e-005 10.4157 -0.0118244
    CHANNELS 3 Zrotation Xrotation Yrotation
    JOINT Bip001_L_Thigh
    {
      OFFSET 11.2582 -10.4157 0.0118432
      CHANNELS 3 Zrotation Xrotation Yrotation
      JOINT Bip001_L_Calf
      {
        OFFSET -0.720717 -44.8687 0.366937
        CHANNELS 3 Zrotation Xrotation Yrotation
        JOINT Bip001_L_Foot
        {
          OFFSET -0.664439 -41.3745 -3.62995
          CHANNELS 3 Zrotation Xrotation Yrotation
          JOINT Bip001_L_Toe0
          {
            OFFSET 0.0541047 -10.4146 13.4033
            CHANNELS 3 Zrotation Xrotation Yrotation
            End Site
            {
              OFFSET -1.04503e-005 0 7.70137
            }
          }
        }
      }
    }
    JOINT Bip001_R_Thigh
    {
      OFFSET -11.2582 -10.4156 0.0118122
      CHANNELS 3 Zrotation Xrotation Yrotation
      JOINT Bip001_R_Calf
      {
        OFFSET 0.72059 -44.8687 0.36676
        CHANNELS 3 Zrotation Xrotation Yrotation
        JOINT Bip001_R_Foot
        {
          OFFSET 0.664321 -41.3745 -3.62979
          CHANNELS 3 Zrotation Xrotation Yrotation
          JOINT Bip001_R_Toe0
          {
            OFFSET -0.05417 -10.4146 13.4033
            CHANNELS 3 Zrotation Xrotation Yrotation
            End Site
            {
              OFFSET -1.04873e-005 0 7.70137
            }
          }
        }
      }
    }
    JOINT Bip001_Spine1
    {
      OFFSET 1.90638e-005 14.8539 1.10727
      CHANNELS 3 Zrotation Xrotation Yrotation
      JOINT Bip001_Spine2
      {
        OFFSET 2.28934e-005 14.7848 -1.7233
        CHANNELS 3 Zrotation Xrotation Yrotation
        JOINT Bip001_Neck
        {
          OFFSET 2.24514e-005 15.6905 -0.498826
          CHANNELS 3 Zrotation Xrotation Yrotation
          JOINT Bip001_L_Clavicle
          {
            OFFSET 6.17691 -0.000591152 0.00852867
            CHANNELS 3 Zrotation Xrotation Yrotation
            JOINT Bip001_L_UpperArm
            {
              OFFSET 11.773 -0.0611878 0.00197697
              CHANNELS 3 Zrotation Xrotation Yrotation
              JOINT Bip001_L_Forearm
              {
                OFFSET 26.4515 0.0817567 -2.1958
                CHANNELS 3 Zrotation Xrotation Yrotation
                JOINT Bip001_L_Hand
                {
                  OFFSET 32.8679 0.156744 1.67111
                  CHANNELS 3 Zrotation Xrotation Yrotation
                  JOINT Bip001_L_Finger0
                  {
                    OFFSET 6.1627 -2.25226 6.01671
                    CHANNELS 3 Zrotation Xrotation Yrotation
                    End Site
                    {
                      OFFSET 4.305 -1.46663 0.618145
                    }
                  }
                  JOINT Bip001_L_Finger1
                  {
                    OFFSET 11.2958 -0.718374 -0.201962
                    CHANNELS 3 Zrotation Xrotation Yrotation
                    End Site
                    {
                      OFFSET 6.31955 -0.405163 -0.0802299
                    }
                  }
                }
              }
            }
          }
          JOINT Bip001_R_Clavicle
          {
            OFFSET -6.17691 -0.000574027 0.00851165
            CHANNELS 3 Zrotation Xrotation Yrotation
            JOINT Bip001_R_UpperArm
            {
              OFFSET -11.773 -0.0611516 0.00194365
              CHANNELS 3 Zrotation Xrotation Yrotation
              JOINT Bip001_R_Forearm
              {
                OFFSET -26.4514 0.0822335 -2.19736
                CHANNELS 3 Zrotation Xrotation Yrotation
                JOINT Bip001_R_Hand
                {
                  OFFSET -32.8679 0.156816 1.67144
                  CHANNELS 3 Zrotation Xrotation Yrotation
                  JOINT Bip001_R_Finger0
                  {
                    OFFSET -6.16272 -2.25224 6.01669
                    CHANNELS 3 Zrotation Xrotation Yrotation
                    End Site
                    {
                      OFFSET -4.30501 -1.46661 0.618133
                    }
                  }
                  JOINT Bip001_R_Finger1
                  {
                    OFFSET -11.2958 -0.718344 -0.201994
                    CHANNELS 3 Zrotation Xrotation Yrotation
                    End Site
                    {
                      OFFSET -6.31955 -0.405146 -0.0802474
                    }
                  }
                }
              }
            }
          }
          JOINT Bip001_Head
          {
            OFFSET 1.11782e-005 11.4912 2.09908
            CHANNELS 3 Zrotation Xrotation Yrotation
            End Site
            {
              OFFSET 2.95144e-005 21.2823 -2.83069e-005
            }
          }
        }
      }
    }
  }
}
MOTION
Frames:	9
Frame Time:	0.0333333
1.37177 92.9178 -5.94196 0.983531 -5.69052 1.06862 -0.28719 4.40501 1.22708 -3.31066 -9.49633 -11.2449 0.161111 24.5209 -0.233188 -0.39482 -11.5179 7.25862 5.7827e-008 -2.12205e-007 -1.06834e-007 -1.54642 -12.3626 0.618793 -0.250366 24.9548 -0.276815 0.132562 -7.61056 -3.06076 -9.80299e-008 -4.25095e-007 -1.69646e-007 0.22354 8.79209 2.5115 0.220636 8.79355 2.50297 3.7517 0.835369 13.9851 -27.8036 9.29957 -19.8614 -42.3482 30.1293 -6.02623 -5.49954 4.81396 -78.9505 -20.3354 19.4335 12.9651 -3.18055e-015 1.59028e-015 3.18055e-015 -3.18055e-015 0 -0 17.4434 -4.8114 -15.5949 55.3108 31.0835 -2.79286 5.49564 4.55102 76.4017 16.183 23.3378 -9.29824 -1.10348e-031 1.59028e-015 3.97569e-015 3.18055e-015 -1.59028e-015 3.18055e-015 -8.61071 -21.5391 21.4005 
1.38185 92.9171 -5.94025 0.98409 -5.69105 1.06845 -0.287079 4.40502 1.22681 -3.31518 -9.49475 -11.2631 0.161375 24.515 -0.233035 -0.382818 -11.489 7.34339 5.7827e-008 -2.12205e-007 -1.06834e-007 -1.54503 -12.3623 0.625642 -0.25067 24.9407 -0.276623 0.134761 -7.56941 -3.08987 -9.80299e-008 -4.25095e-007 -1.69646e-007 0.223398 8.79276 2.51117 0.220841 8.79422 2.50231 3.78059 0.773623 13.9477 -27.8288 9.34236 -19.7809 -42.3585 30.1014 -5.95594 -5.5091 4.80172 -78.8255 -19.9051 19.2901 12.6159 6.36111e-015 6.36111e-015 6.36111e-015 6.36111e-015 6.36111e-015 6.36111e-015 17.4886 -4.74964 -15.5898 55.2391 31.0083 -2.78641 5.5028 4.54021 76.2891 15.9211 23.5372 -9.16389 -2.20695e-032 -1.59028e-015 -7.95139e-016 3.18055e-015 0 -1.59028e-015 -8.6325 -21.5971 21.368 
1.39406 92.9171 -5.93872 0.982188 -5.69176 1.06754 -0.287027 4.40561 1.22681 -3.32424 -9.491 -11.3094 0.161592 24.4926 -0.232731 -0.391028 -11.4545 7.35228 5.7827e-008 -2.12205e-007 -1.06834e-007 -1.53641 -12.362 0.670042 -0.250837 24.9182 -0.276088 0.142341 -7.51846 -3.15628 -9.80299e-008 -4.25095e-007 -1.69646e-007 0.22308 8.79487 2.5107 0.220787 8.79634 2.50155 3.81187 0.731975 13.8985 -27.8641 9.36022 -19.7023 -42.375 30.0516 -5.89717 -5.5134 4.79257 -78.7271 -19.4848 19.1227 12.2798 -6.62086e-031 4.77083e-015 7.95139e-015 -1.76556e-031 1.59028e-015 6.36111e-015 17.5013 -4.69625 -15.5717 55.1952 30.9853 -2.7708 5.50086 4.53166 76.1871 15.6828 23.7256 -9.01368 3.18055e-015 0 -0 3.18055e-015 1.59028e-015 -0 -8.66285 -21.6515 21.3403 
1.40365 92.9236 -5.93875 0.976552 -5.69255 1.06591 -0.287489 4.40679 1.22708 -3.33816 -9.48357 -11.3777 0.161868 24.4793 -0.23233 -0.393617 -11.493 7.37562 5.7827e-008 -2.12205e-007 -1.06834e-007 -1.51854 -12.3631 0.765474 -0.2508 24.8888 -0.27525 0.143447 -7.47712 -3.32019 -9.80299e-008 -4.25095e-007 -1.69646e-007 0.222566 8.79956 2.51013 0.220413 8.80104 2.50075 3.8368 0.708279 13.8338 -27.8976 9.35934 -19.6211 -42.378 29.9427 -5.83593 -5.51227 4.78596 -78.6489 -19.5815 19.196 12.2381 -3.18055e-015 -1.59028e-015 4.77083e-015 -3.18055e-015 -1.59028e-015 3.18055e-015 17.5105 -4.65654 -15.5268 55.1717 30.9486 -2.77094 5.4989 4.52106 76.0651 15.4825 23.9286 -8.90396 3.18055e-015 -1.59028e-015 -7.95139e-016 6.36111e-015 -4.77083e-015 4.77083e-015 -8.67958 -21.6971 21.312 
1.4121 92.928 -5.93564 0.973114 -5.6933 1.06039 -0.28898 4.40859 1.22903 -3.35417 -9.47303 -11.4584 0.162193 24.4749 -0.231836 -0.38211 -11.544 7.48511 5.7827e-008 -2.12205e-007 -1.06834e-007 -1.51382 -12.3666 0.80232 -0.250373 24.8764 -0.274202 0.142916 -7.41955 -3.39948 -9.80299e-008 -4.25095e-007 -1.69646e-007 0.221836 8.80794 2.50948 0.219655 8.80947 2.49997 3.83461 0.694403 13.7774 -27.9152 9.34839 -19.5559 -42.368 29.8289 -5.77425 -5.51113 4.77909 -78.5673 -19.8258 19.3284 12.2898 -3.18055e-015 1.59028e-015 4.77083e-015 -2.64834e-031 3.18056e-015 4.77083e-015 17.5385 -4.63452 -15.4855 55.1766 30.8922 -2.79645 5.49647 4.50905 75.9365 15.3065 24.1207 -8.82676 -3.18055e-015 -3.18055e-015 -3.18055e-015 -3.18055e-015 -4.77083e-015 -3.97569e-015 -8.66277 -21.7549 21.2778 
1.42318 92.9261 -5.92911 0.971289 -5.6956 1.05404 -0.290743 4.4134 1.23119 -3.3658 -9.45935 -11.5005 0.162527 24.4725 -0.231243 -0.372305 -11.5549 7.55333 5.7827e-008 -2.12205e-007 -1.06834e-007 -1.51888 -12.3765 0.807949 -0.251267 24.884 -0.268745 0.160017 -7.33925 -3.32004 -9.80299e-008 -4.25095e-007 -1.69646e-007 0.221039 8.81733 2.50878 0.218625 8.81885 2.49922 3.82025 0.665699 13.733 -27.9193 9.35337 -19.4924 -42.378 29.7437 -5.70876 -5.50992 4.77164 -78.4789 -19.7939 19.3227 12.2126 3.18055e-015 -6.36111e-015 -3.97569e-015 3.18055e-015 -6.36111e-015 -3.18055e-015 17.5767 -4.60386 -15.4617 55.1738 30.8001 -2.80334 5.49372 4.49528 75.7987 15.0995 24.2569 -8.69913 -9.54166e-015 4.77083e-015 -1.59028e-015 -6.36111e-015 6.36111e-015 2.38542e-015 -8.63868 -21.8205 21.2499 
1.43297 92.9214 -5.92268 0.969842 -5.69981 1.03924 -0.2928 4.4182 1.23351 -3.38077 -9.44776 -11.5275 0.162859 24.4713 -0.230555 -0.35355 -11.5697 7.6499 5.7827e-008 -2.12205e-007 -1.06834e-007 -1.52946 -12.3936 0.812042 -0.251645 24.9137 -0.261311 0.167561 -7.304 -3.26964 -9.80299e-008 -4.25095e-007 -1.69646e-007 0.218965 8.82704 2.50803 0.21734 8.82854 2.49854 3.80167 0.625958 13.6951 -27.9143 9.35938 -19.4287 -42.3955 29.6373 -5.64284 -5.50857 4.76392 -78.3871 -19.7046 19.2903 12.0925 -3.18055e-015 1.59028e-015 -3.18055e-015 -3.18055e-015 1.59028e-015 -2.38542e-015 17.6221 -4.5656 -15.4465 55.1579 30.691 -2.79 5.49071 4.48066 75.6506 14.8707 24.3779 -8.57124 -9.54166e-015 0 -1.59028e-015 -9.54166e-015 -1.59028e-015 -7.95139e-016 -8.62105 -21.9172 21.2238 
1.44265 92.9155 -5.91481 0.969184 -5.70618 1.02496 -0.29526 4.42358 1.23601 -3.39962 -9.43163 -11.5654 0.163177 24.4711 -0.229776 -0.346808 -11.5667 7.69481 5.7827e-008 -2.12205e-007 -1.06834e-007 -1.5336 -12.3981 0.814964 -0.251562 24.9434 -0.256661 0.162361 -7.30255 -3.28855 -9.80299e-008 -4.25095e-007 -1.69646e-007 0.215617 8.83775 2.50728 0.215755 8.83927 2.49798 3.79293 0.591984 13.6576 -27.9101 9.36581 -19.3677 -42.4318 29.4644 -5.57175 -5.50723 4.75576 -78.2903 -19.7488 19.3936 12.033 3.18055e-015 1.59028e-015 -0 -3.18055e-015 -1.59028e-015 -1.59028e-015 17.6581 -4.53076 -15.4282 55.1244 30.5901 -2.76281 5.48744 4.46529 75.4936 14.6479 24.5427 -8.47514 3.18055e-015 -4.77083e-015 5.56597e-015 3.18055e-015 -6.36111e-015 -7.95139e-016 -8.62325 -21.9388 21.2263 
1.45147 92.9095 -5.9042 0.969167 -5.71888 1.01387 -0.298254 4.42923 1.23926 -3.41041 -9.41435 -11.5835 0.163472 24.4715 -0.228912 -0.347898 -11.5801 7.68687 5.7827e-008 -2.12205e-007 -1.06834e-007 -1.53561 -12.3962 0.816112 -0.251095 24.9594 -0.25431 0.165476 -7.30548 -3.23394 -9.80299e-008 -4.25095e-007 -1.69646e-007 0.212122 8.84933 2.50528 0.213866 8.85089 2.49759 3.79178 0.562644 13.6179 -27.9065 9.37136 -19.3085 -42.4803 29.246 -5.49767 -5.50588 4.74801 -78.1978 -19.8186 19.5389 12.0074 3.18055e-015 4.77083e-015 1.59028e-015 6.36111e-015 6.36111e-015 5.56597e-015 17.6957 -4.49999 -15.4043 55.0838 30.4921 -2.74756 5.48415 4.45022 75.3436 14.446 24.6842 -8.41527 4.41391e-031 -3.18055e-015 7.95139e-015 -3.18055e-015 -4.77083e-015 6.36111e-015 -8.65676 -21.9289 21.245 
